<?xml version="1.0" ?><svg id="Layer_1" style="enable-background:new 0 0 96 96;" version="1.1" viewBox="0 0 96 96" xml:space="preserve" xmlns="http://www.w3.org/2000/svg" xmlns:xlink="http://www.w3.org/1999/xlink"><style type="text/css">
	.st0{fill:none;stroke:#000000;stroke-width:4;stroke-miterlimit:10;}
</style><g><path d="M87,9v67.4L48.8,86.6c-0.1,0-0.4,0.1-0.8,0.1s-0.8,0-0.8-0.1L9,76.4V9h36.6h4.9H87 M90.6,3H50.4c-1.3,0-3.6,0-4.9,0H5.4   C4.1,3,3,4.1,3,5.4v73.1c0,1.3,1.1,2.7,2.4,3.1l40.3,10.7c0.7,0.2,1.5,0.3,2.4,0.3s1.7-0.1,2.4-0.3l40.3-10.7   c1.3-0.3,2.4-1.7,2.4-3.1V5.4C93,4.1,91.9,3,90.6,3L90.6,3z"/></g><line class="st0" x1="3" x2="93" y1="18" y2="18"/><g><path class="st0" d="M4,70l41.4,11.3c1.4,0.4,3.7,0.4,5.1,0L92,70"/></g><g><path d="M31.5,46.9c0-5.9,4-9.3,8.9-9.3c2.6,0,4.6,1.1,5.8,2.3L44,42.5c-0.9-0.8-1.9-1.4-3.5-1.4c-2.8,0-4.8,2.2-4.8,5.7   c0,3.7,1.7,5.8,5.1,5.8c0.8,0,1.5-0.2,2-0.5v-3.1h-3v-3.3h6.7v8.2C45.2,55,43,56,40.5,56C35.4,56,31.5,52.9,31.5,46.9z"/><path d="M48.8,38.1c0-1.2,1-2.1,2.4-2.1c1.4,0,2.4,0.8,2.4,2.1c0,1.2-1,2.1-2.4,2.1C49.8,40.2,48.8,39.3,48.8,38.1z M49.1,42.2h4.1   v13.5h-4.1V42.2z"/><path d="M56.6,50.8v-5.5h-1.9v-3l2.1-0.2l0.5-3.6h3.4v3.6h3.3v3.1h-3.3v5.4c0,1.5,0.7,2.2,1.8,2.2c0.4,0,1-0.1,1.3-0.3l0.6,2.9   c-0.7,0.2-1.7,0.5-3.1,0.5C58,56,56.6,53.9,56.6,50.8z"/></g></svg>